<?xml version="1.0" encoding="utf-8"?>
<!DOCTYPE svg PUBLIC "-//W3C//DTD SVG 1.0//EN" "http://www.w3.org/TR/2001/REC-SVG-20010904/DTD/svg10.dtd">
<svg version="1.0" xmlns="http://www.w3.org/2000/svg" width="807px" height="715px" viewBox="0 0 807 715" preserveAspectRatio="xMidYMid meet">
 <g fill="#f4e1bf">
  <path d="M332.5 614.7 c-0.2 -0.6 -0.8 -2.9 -1.4 -4.9 -1 -3.9 -2.9 -6.9 -9.4 -14.2 -2.1 -2.5 -4.6 -6.9 -5.7 -10.3 -2.6 -8 -6.5 -14.8 -10.1 -17.5 -9.4 -7.2 -14.9 -13.8 -19.5 -23.2 -4.3 -8.6 -4.7 -9.9 -3.5 -11.8 1.8 -3 1.6 -9.6 -0.5 -11.9 -1.7 -1.9 -1.3 -6.9 0.6 -6.9 0.6 0 1.5 -1.2 2 -2.6 0.8 -2 1.6 -2.5 3.8 -2.3 5.5 0.5 7 -0.8 8.2 -6.9 1.5 -7.3 4 -13.9 7.6 -19.6 2.3 -3.5 3.5 -4.5 5.6 -4.6 4.1 0 7.6 -1.7 14.2 -6.7 10.6 -8 13.9 -9.1 26.7 -8.8 l11 0.3 3 4.8 c2.9 4.5 3 5.1 2.4 11.4 -0.5 5.1 -0.3 7.5 0.9 9.7 2 3.9 14.7 17.5 17.9 19.2 2.5 1.3 2.5 1.4 0.9 4.5 -1 1.7 -3.2 4.5 -5 6.3 -2.6 2.6 -3.2 3.9 -3.2 7.5 0 4.8 -1.8 7.1 -12.8 15.6 -7.5 5.8 -9.3 8.4 -11.3 16.8 -1.1 4.8 -2.8 8.8 -4.7 11.2 -2 2.6 -3.2 5.4 -3.7 9.2 -0.4 3 -1.3 6.6 -2 8 -2.3 4.6 -2.6 9.6 -0.9 13.9 1.5 3.7 1.5 4.2 -0.2 7 -1 1.7 -2.6 3.1 -3.5 3.1 -0.9 0 -2.8 1.1 -4.3 2.5 -1.8 1.6 -2.8 2.1 -3.1 1.2z"/>
  <path d="M479.8 593.9 c-4.8 -6 -7.2 -6.9 -18.5 -6.9 -13.6 0 -35 -2.5 -39.8 -4.6 -3.3 -1.4 -7.2 -1.7 -22.5 -1.7 -10.2 -0.1 -21.2 0.1 -24.5 0.4 -5.1 0.3 -6.5 0.1 -9.4 -2 -4.1 -2.9 -11.8 -4.6 -13.8 -3 -2.3 2 -1.4 0.1 2.2 -4.6 1.9 -2.5 3.7 -6.2 4 -8.3 1.4 -8.3 3.5 -12.1 10.3 -18 14.1 -12.2 15.2 -13.5 15.2 -18.2 0 -3.6 0.6 -4.9 3.3 -7.5 1.7 -1.8 3.9 -4.2 4.7 -5.4 l1.5 -2.2 5 2.2 c4.7 2.1 5.8 2.2 23.5 1.5 10.2 -0.3 21.4 -0.9 25 -1.1 3.6 -0.3 15.2 -1.2 25.9 -2 10.6 -0.8 21.7 -1.5 24.5 -1.5 l5.2 0 -1.7 14.3 c-3.1 24.8 -6.8 56 -7.5 62.8 -0.6 6.3 -0.8 6.7 -4.1 8.3 -4.6 2.2 -4.8 2.2 -8.5 -2.5z"/>
  <path d="M496 588.3 c0 -1.1 0.4 -5.5 1 -9.9 0.5 -4.3 2.8 -23.2 5 -41.9 2.3 -18.7 5.5 -44.3 7.1 -57 7.2 -55.5 13.9 -116.7 13.9 -127 0 -2.5 -0.6 -6 -1.4 -7.8 -1.5 -3.7 -8.6 -10.8 -16.6 -16.7 -9.6 -7.1 -9 -6.2 -9.1 -14.7 0 -4.3 -0.4 -15.9 -0.8 -25.7 -0.8 -17.4 -0.9 -18 -3.1 -19.5 -1.3 -0.9 -5.3 -3.7 -8.8 -6.3 -3.6 -2.7 -7.6 -4.8 -8.9 -4.8 -3.2 0 -9.3 -2.6 -12 -5.2 -1.6 -1.5 -3.8 -2.2 -7.4 -2.4 -2.8 -0.1 -5.8 -0.9 -6.7 -1.7 -0.9 -0.8 -3.5 -2 -5.7 -2.7 -2.2 -0.7 -4.9 -2.1 -6 -3 -1.1 -1 -5 -3.3 -8.7 -5 -4.3 -2.1 -8.1 -4.8 -10.3 -7.4 -1.9 -2.2 -4.2 -4.9 -5 -5.8 -0.8 -1 -2.6 -1.8 -3.9 -1.8 -1.4 0 -2.7 -0.4 -3 -0.8 -0.8 -1.3 21.9 -40.2 25.9 -44.4 2 -2.1 7.6 -6.7 12.3 -10.3 7.4 -5.5 9.3 -6.5 12.7 -6.5 3.1 0.1 33.6 2.7 34.1 2.9 0.1 0.1 1.1 3.5 2.4 7.7 2.5 8.7 3.5 9.3 13.3 9.5 3.4 0 8.4 0.4 11.2 0.7 l4.9 0.7 2.3 6 c1.2 3.3 2.5 7.2 2.9 8.7 0.3 1.4 2.1 4.1 4 5.9 1.9 1.8 3.4 4.3 3.4 5.5 0 5.3 5.7 13.4 9.4 13.4 3.2 0 4.3 1.2 4.3 4.7 0 4.1 1.7 6.1 7.3 8.5 5.8 2.5 7.7 4.2 9.9 9.4 1.1 2.4 3.2 4.9 4.8 5.8 5.9 3.3 8.5 6.3 9.3 10.7 0.8 4.1 0.7 4.6 -2.1 6.7 -3.6 2.9 -3.9 8 -0.9 13.2 1.1 1.9 2.9 5.3 4 7.5 2.6 5 4.6 7.4 8.7 10.3 2.6 1.8 3.2 3.1 3.8 7.5 1.2 9.8 9.6 22.8 16.4 25.7 3 1.2 9 1 12.3 -0.4 1.5 -0.7 1.6 -0.4 0.8 2.5 -1.4 4.7 -0.4 7.3 4.2 10.9 2.2 1.8 10.9 11.9 19.3 22.4 8.4 10.5 16.1 19.9 17.2 20.8 1.4 1.3 7.7 2.6 23.8 4.8 12.1 1.7 28.1 3.9 35.5 5 19.6 2.8 27.4 3.4 29.6 2.2 1.7 -0.9 2.8 0.1 8.8 8 4.9 6.4 6.7 9.5 6.3 11.1 -1.6 7.7 -19.1 69.4 -19.9 70.5 -0.6 0.6 -1.4 1.2 -1.9 1.2 -1.1 0 -11.6 4.1 -36.9 14.2 -24.6 9.8 -47.7 18.7 -53 20.4 -8.5 2.7 -46.7 8.3 -92.5 13.5 -9.8 1.2 -10.3 1.3 -25.5 9.7 -8.5 4.6 -16.1 8.9 -16.9 9.6 -2.3 1.8 -15.4 18.5 -20.5 26.1 -3 4.5 -4.6 6.2 -4.6 4.8z"/>
  <path d="M277.3 529.8 c-0.4 -0.7 -1.8 -4 -2.9 -7.3 -1.2 -3.3 -2.6 -7.3 -3.2 -9 -0.6 -1.6 -1.4 -4.2 -1.7 -5.6 -0.8 -4.2 -8.6 -14.8 -17.6 -23.8 -10 -10 -11.1 -10.7 -17 -11.5 -5.3 -0.8 -7.6 -2.9 -13.4 -12.1 -2.1 -3.3 -5.6 -8.2 -7.9 -10.9 -4 -4.8 -4.1 -5.2 -3.9 -11.5 0.1 -4.4 -0.5 -8.6 -1.9 -12.8 -2.1 -6.5 -2.1 -7.8 0.7 -15.3 2.5 -6.6 1.3 -13.9 -3.5 -22 -3 -5.1 -7 -13.4 -7 -14.4 0 -0.1 2.3 -0.1 5 0 4 0.1 6.1 0.8 9.8 3.5 4.2 3 5.4 3.4 11.2 3.4 l6.5 0 4 8.2 c5.5 11.1 5.7 11.3 12.5 11.3 5.2 0 6.4 -0.5 12.1 -4.4 3.5 -2.3 7.9 -5.1 9.7 -6 2.2 -1.1 4 -3.2 5.1 -5.9 1.3 -2.9 3.6 -5.4 7.4 -8.2 6.2 -4.4 9.7 -9.6 9.7 -14.4 0 -2.5 0.5 -3.3 2.8 -4.1 1.5 -0.6 3.7 -1.6 4.9 -2.2 1.3 -0.6 2.5 -0.9 2.7 -0.7 1.6 1.8 5.9 12.2 8.5 20.7 3.2 10.2 3.3 10.3 7.5 12.1 2.3 1 6.2 2.2 8.6 2.6 6.5 1.1 7.8 2.1 8.6 6.3 1.1 6.4 2.8 8.2 7.9 8.2 2.4 0 5.5 0.4 6.9 1 2.5 0.9 2.6 1.3 2.6 8.8 0 5.3 -0.7 9.6 -2.1 13.7 -2.9 8.1 -2.1 15.6 2.5 25 1.9 3.8 3.3 7.2 3 7.4 -0.2 0.2 -3.2 -0.1 -6.7 -0.7 -9 -1.7 -12.9 -0.3 -26.7 9.3 -4.1 2.8 -8.2 5.4 -9.2 5.8 -1.9 0.7 -3.9 -1.5 -5.7 -6 -1.4 -3.5 -4.6 -5.2 -6.4 -3.4 -2.4 2.4 -7.5 1 -13 -3.5 -1.6 -1.3 -3.7 -2.4 -4.7 -2.4 -2.4 0 -5 3.7 -5 7.2 0 1.8 -1.3 4.2 -3.5 6.7 -1.9 2.1 -3.5 4.7 -3.5 5.8 0 1 -0.7 2.8 -1.5 3.9 -0.8 1 -1.5 3.7 -1.5 6 0 3.2 0.6 4.6 3.1 7 2.9 2.7 3 3.2 2.4 7.8 -0.6 5 1.1 8.6 4 8.6 0.9 0 1.1 1.3 0.8 4.4 -0.4 3 0 5.1 1.2 6.9 1.8 2.8 1.7 6.8 -0.2 7.4 -0.6 0.2 -1.5 -0.2 -2 -0.9z"/>
  <path d="M401.8 512 c-12.1 -3.6 -31.8 -22 -31.8 -29.7 0 -1.2 0.5 -2.5 1 -2.8 3.7 -2.3 -2.6 -17 -9.1 -21.1 -4.6 -2.8 -7.3 -7.9 -9.1 -16.9 -0.9 -4.5 -0.8 -6.7 0.5 -11.8 2.3 -8.9 3 -18.8 1.8 -23.5 -1.2 -4.2 -2.8 -5.1 -8.6 -5.2 -6.1 -0.1 -7.5 -1 -8.2 -5.3 -0.9 -6 -3.5 -8 -13.1 -10.2 -4.6 -1 -8.5 -2.2 -8.8 -2.6 -0.2 -0.4 -1.5 -4.6 -2.9 -9.4 -1.4 -4.7 -4 -11.8 -5.9 -15.8 -1.8 -4 -3.7 -8.5 -4 -10.1 -1.1 -4.5 2.3 -18.6 5.2 -21.5 2.2 -2.2 2.8 -2.3 8.5 -1.5 3.4 0.4 10.4 0.8 15.6 0.8 8.4 0 9.5 -0.2 11.1 -2.2 1 -1.2 2.1 -4.4 2.5 -7.1 0.4 -2.8 1.2 -5.4 1.8 -6 0.7 -0.5 4 -1.9 7.4 -3 3.5 -1.2 9.3 -3.9 12.9 -6.2 6.4 -3.9 13.2 -5.9 20.1 -5.9 1.9 0 4.7 -0.7 6.3 -1.5 2.7 -1.4 3 -2 3 -6.5 0 -6 -1 -8.8 -6.1 -16.7 -2.3 -3.5 -4.3 -8 -4.6 -10.2 -0.5 -3.8 -0.3 -4.3 5 -9.4 6.2 -5.9 7.6 -9.4 5.8 -14.4 -1.2 -3.1 -1 -3.7 1.5 -7.1 1.5 -2 2.8 -3.8 2.9 -4 0.1 -0.1 2 0 4.2 0.4 3.3 0.5 4.3 1.2 5.6 4 1.5 3.1 10.8 10.4 13.3 10.4 0.7 0 3.5 1.6 6.4 3.6 2.8 1.9 6.9 4.2 9.1 4.9 2.2 0.8 5 2.1 6.2 3 1.2 0.8 4 1.5 6.2 1.5 3 0 5.2 0.8 8.1 2.9 2.1 1.6 6.2 3.3 8.9 3.8 3.6 0.7 6.9 2.4 12 6.2 3.9 2.9 7.3 5.6 7.7 6 0.4 0.3 1.2 11.8 1.8 25.5 0.6 13.6 1.5 25.6 2 26.6 0.5 1 3 3 5.4 4.4 2.5 1.4 7.9 5.9 12.1 10 l7.5 7.3 0 7.4 c0 12 -3.8 50.8 -8.5 87.9 -1.3 10.2 -3.6 27.7 -5 39 -3.3 26.1 -3.4 27 -4.4 27 -0.5 0 -9.8 0.7 -20.7 1.4 -11 0.8 -24.4 1.8 -29.9 2.1 -5.5 0.4 -14.9 1.1 -21 1.6 -13.1 1.1 -24 1 -27.7 -0.1z"/>
  <path d="M278.6 508.5 c-1.3 -1 -1.7 -2.4 -1.6 -5.2 0.4 -6.2 0.2 -7.1 -3 -10.3 -3.4 -3.5 -3.6 -4.8 -1.5 -7.6 0.8 -1 1.5 -3.1 1.5 -4.5 0 -1.4 1.1 -3.6 2.6 -5 3.3 -3.1 5.4 -7.1 5.4 -10.4 0 -3.3 1.3 -3.2 6.1 0.7 3.9 3.2 9.4 4.2 13.8 2.8 1 -0.3 1.7 0.6 2.3 3 0.8 3.3 0.5 4.2 -3.6 10.2 -2.9 4.4 -4.8 8.7 -5.6 12.5 -2.3 10.8 -2.3 10.8 -6.3 10.5 -2.9 -0.3 -4.2 0.2 -6 2.1 -1.9 2.2 -2.5 2.3 -4.1 1.2z"/>
  <path d="M242.3 395.9 c-0.6 -0.8 -2.6 -4.8 -4.5 -9 -4.3 -9.3 -6.6 -11.1 -12.9 -10.3 -4.9 0.7 -7.7 -0.3 -11.7 -3.9 -1.6 -1.5 -4.1 -2.2 -9.4 -2.6 l-7.1 -0.6 -3.7 -8.5 c-2.3 -5.4 -5.5 -10.5 -8.5 -13.8 -5.2 -5.8 -18 -14.7 -26.1 -18.1 -3.8 -1.7 -5.5 -3.1 -6.8 -5.8 -0.9 -1.9 -1.5 -3.8 -1.2 -4 0.2 -0.3 2.6 -0.5 5.3 -0.4 7.4 0 8 -0.4 10.2 -7.2 1.9 -5.6 2 -7.4 1.2 -18.4 -0.9 -13.2 -2 -16.2 -6.9 -19 -1.5 -0.9 -4.9 -5 -7.7 -9.2 -3.8 -5.8 -5.1 -8.8 -5.6 -12.9 -0.5 -4 -1.4 -6.1 -3.6 -8.5 -1.9 -1.9 -3.3 -4.7 -3.6 -7.1 -0.4 -2.1 -1.3 -4.6 -2.2 -5.6 -2.4 -2.6 -1.8 -4.6 2.1 -6.9 4.2 -2.5 5.6 -2.6 9.5 -0.5 1.7 0.8 5.4 1.9 8.3 2.4 4.9 0.8 6 1.5 14 9.5 8.5 8.6 8.7 8.7 12.7 8.1 3.8 -0.5 4.3 -0.3 8.6 3.9 4 3.9 5.1 4.5 8.8 4.5 2.4 0 7.4 0.7 11 1.5 4.3 1 8.6 1.4 12 1 5.1 -0.6 5.4 -0.6 6.8 2.2 1 1.9 1.6 8.1 2.1 19.3 0.8 18.9 1.4 20.9 7.4 21.2 8 0.4 13.8 -0.5 18.4 -2.8 5.5 -2.8 9 -3 16.7 -1 3.1 0.8 6.8 1.7 8.2 2 4.8 1 7.9 4.3 7.9 8.6 0 5.4 1.1 7.8 6.4 13.7 5.2 5.8 5.4 6.7 2.6 17.2 -1.1 4 -1.7 8.4 -1.4 9.7 1 3.9 -0.4 6 -5.7 8.4 -5.7 2.7 -6.9 4.3 -6.9 9.3 0 2.8 -0.8 4.2 -4.4 7.3 -2.4 2.2 -5.6 4.7 -7 5.7 -1.4 1 -3.5 3.6 -4.6 5.7 -1.2 2.3 -3.8 5.1 -6.3 6.7 -2.3 1.4 -6.2 4 -8.6 5.6 -4.9 3.4 -12 4.7 -13.8 2.6z"/>
  <path d="M301.3 315.5 c-4.2 -5.3 -5.3 -7.4 -5.3 -10.4 0 -2 -1 -5.4 -2.1 -7.6 -2 -3.7 -2 -4 -0.4 -5 0.9 -0.5 4.5 -3 7.9 -5.5 5.6 -4.2 6.1 -4.9 6.9 -9.5 1 -5.9 1.6 -6.8 8.4 -11.9 2.9 -2.2 7.3 -6.4 9.9 -9.4 2.6 -3 7.2 -7 10.3 -9 3.1 -1.9 7.9 -5.7 10.8 -8.3 5.4 -5.1 14.7 -9.9 19.3 -9.9 1.7 0 4.2 1.4 7 4 2.3 2.1 5.8 4.4 7.7 5 2.9 1 3.9 0.9 7 -1 3.5 -2.1 3.8 -2.1 5 -0.4 2.6 3.6 1.5 6.5 -4.4 12 -5.6 5.1 -5.8 5.5 -5.7 10.3 0 4.1 0.9 6.4 4.6 12.5 4.8 7.8 7.8 17 6.1 18.7 -0.5 0.5 -5.2 1.4 -10.4 2 -8.5 0.9 -10.2 1.5 -17.9 5.9 -4.7 2.6 -10.5 5.3 -13 6 -7.5 1.9 -8.6 3.1 -10 10.5 -1.5 7.8 -2.1 8.1 -14.3 7 -10.9 -0.9 -17.8 -1 -20.2 -0.1 -1.6 0.6 -3 -0.5 -7.2 -5.9z"/>
  <path d="M148.5 310.2 c0.6 -5.4 0.4 -6.2 -3.7 -14.2 -2.4 -4.7 -6 -10.1 -8 -12.1 -3.2 -3.1 -3.8 -4.3 -3.8 -7.7 0 -3.5 -0.6 -4.7 -4 -7.9 -2.2 -2.1 -5.5 -7 -7.4 -10.9 -3.2 -6.6 -11.1 -19.4 -21.5 -34.9 -2.6 -3.8 -5.9 -9.5 -7.4 -12.5 -5.2 -10.8 -11.5 -20.5 -14.7 -22.7 -2.5 -1.8 -4.7 -2.3 -9.1 -2.3 -3.3 0 -5.9 -0.1 -5.9 -0.3 0 -0.1 0.9 -3.4 1.9 -7.2 1.1 -3.9 3.1 -12.6 4.5 -19.4 1.4 -6.8 2.7 -12.6 2.9 -12.7 0.2 -0.2 8.9 1.3 19.2 3.4 l18.9 3.7 1.3 3.5 c0.7 1.9 1.7 5.3 2.3 7.5 0.6 2.2 2.3 5.5 3.8 7.2 2.4 3 3.7 3.5 13.5 5.3 5.9 1.2 13.7 3 17.3 4.1 l6.5 2 4.9 -4.1 4.9 -4.1 0.7 4.8 c0.5 3.8 1.5 5.6 4.5 8.4 3.9 3.8 3.6 3.7 18.4 5.5 2.8 0.3 6.5 1.2 8.4 2 1.8 0.8 4.2 1.4 5.3 1.4 2.6 0 21.8 9.6 23.4 11.7 0.7 1 2.5 5 3.9 8.8 1.7 4.6 4 8.4 6.7 11.2 l4.1 4.2 -3.6 4.2 c-2 2.3 -4.6 6.6 -5.9 9.6 l-2.3 5.5 -8 -0.6 c-20.2 -1.6 -21.1 -1.8 -25.8 -6.4 -3.8 -3.7 -4.8 -4.2 -8.8 -4.2 -4.4 0 -4.9 -0.3 -13 -8.4 -7.3 -7.3 -9 -8.4 -12.9 -9 -2.5 -0.4 -7.1 -1.7 -10.3 -2.8 l-5.9 -2.1 -5.3 2.7 c-2.9 1.4 -5.6 3.4 -5.9 4.2 -1.1 2.9 -0.6 6.1 1.2 8.5 1.1 1.3 2.2 4.2 2.5 6.4 0.5 2.8 1.6 4.8 3.7 6.5 2.6 2.1 3 3.2 3 7.1 0 3.3 0.7 5.6 2.4 8 1.4 1.9 3.9 5.8 5.6 8.7 1.8 3 4.9 6.4 7.1 7.7 4.2 2.7 4.7 4 5.3 16.5 0.2 4.1 0.5 8 0.7 8.5 0.3 1 -1.8 8.9 -2.9 11.3 -0.4 0.8 -3.1 1.5 -7 1.7 l-6.4 0.4 0.7 -5.7z"/>
  <path d="M238.5 293 c-0.4 -0.6 -1 -8.7 -1.4 -17.8 -0.6 -13 -1.1 -17.4 -2.5 -20.1 -1.5 -2.9 -1.6 -3.9 -0.6 -7.7 0.7 -2.3 3.1 -6.5 5.5 -9.3 5.1 -6 5 -8.5 -0.5 -13 -2.9 -2.3 -4.2 -4.4 -5.4 -8.3 -0.8 -2.9 -2.8 -7.3 -4.4 -9.8 -2.4 -3.9 -4.2 -5.2 -11 -8.3 -4.5 -2 -8.6 -3.7 -9.2 -3.7 -4.1 0 4.4 -5.4 22.5 -14.2 20.7 -10.1 26.6 -12.3 31.5 -11.9 5.2 0.4 9.4 0.4 24.5 0 10.6 -0.3 11.3 -0.2 18.5 2.9 5.3 2.4 9.7 3.5 15 3.9 6.8 0.5 7.8 0.9 11.1 3.9 4 3.9 8.3 5.4 15.2 5.4 4.6 0 4.8 0.2 7.5 4.6 6.6 11.2 7.5 12 15.8 14.5 5.9 1.7 9 3.4 12.6 6.6 2.7 2.3 6.1 4.5 7.6 4.9 5.1 1.1 6.9 2.2 7.6 4.9 0.7 2.9 -2.6 9.5 -4.8 9.5 -0.7 0 -2.7 1.1 -4.6 2.5 -1.9 1.4 -4.2 2.5 -5.2 2.5 -1.1 0 -4.1 -2 -6.7 -4.5 -6.8 -6.3 -10 -6.7 -19.4 -2.5 -4 1.9 -9.4 5.4 -12.3 8 -2.7 2.6 -6.6 5.5 -8.5 6.5 -1.9 1 -8.1 6.3 -13.9 11.9 -5.8 5.6 -11.8 11 -13.3 12.1 -2.1 1.5 -3.3 3.7 -4.6 8.5 -1.6 5.8 -2.3 6.8 -6.5 9.8 -2.5 1.8 -6.9 4.1 -9.6 5.2 -4.9 1.9 -4.9 1.9 -12.7 -0.1 -9.2 -2.4 -14.7 -2.1 -19.1 1.1 -3.6 2.7 -17.3 4.2 -18.7 2z"/>
  <path d="M401 215.8 c-0.8 -1.1 -3.6 -2.4 -6.1 -2.9 -3.1 -0.7 -6.3 -2.5 -9.8 -5.4 -2.9 -2.5 -7.1 -5 -9.4 -5.6 -10.3 -2.7 -10.9 -3.1 -15.3 -10.4 -5.9 -9.6 -7.2 -10.5 -15.4 -10.5 -6.2 0 -7 -0.2 -9.2 -2.8 -4.3 -5.2 -6.7 -6.2 -14.4 -6.2 -6.1 0 -8 -0.5 -13.4 -3.2 l-6.3 -3.3 -18.8 0 c-10.3 0 -19 -0.3 -19.3 -0.6 -0.7 -0.7 1.1 -15.6 2 -17.1 0.4 -0.6 7.6 -6.2 16.1 -12.5 8.5 -6.3 15.7 -12.1 16 -12.9 1.2 -3.2 -0.7 -5.9 -6.1 -8.7 -3 -1.6 -8.1 -5.3 -11.4 -8.3 l-6 -5.4 -11.4 -0.8 c-10.7 -0.8 -11.8 -1.1 -17.4 -4.5 l-6 -3.7 -27.4 2.5 c-15.1 1.4 -29.2 2.6 -31.2 2.8 -3.7 0.2 -3.8 0 -17.3 -16.8 -7.4 -9.3 -13.5 -17.3 -13.5 -17.7 0 -0.8 3.3 -1.7 33 -9.3 13.3 -3.4 24.3 -6.8 26.8 -8.3 l4.4 -2.5 18.5 3.9 18.5 3.8 9.7 6.4 c5.3 3.6 13.7 9.3 18.8 12.8 5.1 3.5 14.6 9.3 21.2 12.9 9.6 5.3 14.4 8.8 24.3 17.8 13.1 11.9 18.2 16.4 26.9 23.8 3 2.5 10.5 9 16.8 14.4 14.9 12.7 21.1 17.5 23.6 18.5 1.2 0.4 12.7 1.6 25.5 2.5 12.9 1 24 2 24.7 2.4 0.8 0.4 -1.8 3 -6.8 7 -8.8 7 -10.1 8.7 -23.8 33.1 -5.1 9.1 -9.4 16.6 -9.5 16.6 0 0.1 -0.8 -0.7 -1.6 -1.8z"/>
  <path d="M198.8 191.5 c-0.3 -0.3 -5.2 -1.4 -10.9 -2.5 -16.2 -3.1 -15.7 -2.7 -19.5 -15.5 -1.1 -3.6 -4.4 -4.4 -7.1 -1.8 -1 1 -3 2.8 -4.4 4.1 l-2.5 2.2 -11.9 -3 c-6.5 -1.6 -12.9 -3 -14.2 -3 -3.4 0 -7.7 -2.4 -9.1 -5.2 -0.7 -1.2 -2.1 -5.4 -3.1 -9.1 l-1.9 -6.8 3.2 -3 c1.7 -1.6 3.4 -2.9 3.7 -2.9 0.3 0 3.2 -3.4 6.5 -7.5 3.2 -4.1 6.6 -7.7 7.4 -8.1 0.8 -0.3 6.1 -1.6 11.8 -2.9 11.3 -2.5 13.7 -4 15.2 -9.6 0.8 -3 1.8 -4.1 5.4 -5.7 5.6 -2.7 10.6 -6.9 10.6 -9.1 0 -2 -2.8 -1.6 41.3 -5.8 17.6 -1.6 19 -1.6 21.5 -0.1 8.2 5.1 9.9 5.6 20.7 6.4 l11 0.7 5.8 5.1 c3.2 2.8 8.1 6.5 10.9 8.1 2.8 1.7 5.1 3.5 5.1 4 0 0.6 -7 6.1 -15.4 12.3 -9.7 7.1 -15.8 12.2 -16.6 14 -0.6 1.5 -1.4 6.1 -1.8 10.4 -0.6 7 -0.9 7.7 -3.2 8.3 -6.2 1.5 -38.8 17.1 -47.1 22.4 -5.6 3.7 -9.9 5 -11.4 3.6z"/>
 </g>
 <g fill="#7a6239">
  <path d="M327.3 622.8 c-1.2 -1.4 -2.3 -4.2 -2.5 -6.9 -0.4 -3.4 -1.6 -6.1 -4.7 -10.3 -2.3 -3.1 -4.5 -5.6 -4.9 -5.6 -1.4 0 -4.7 -6.4 -7.4 -14.5 -1.9 -5.6 -3.5 -8.6 -5.4 -10 -1.5 -1.1 -6.1 -5.4 -10.3 -9.5 -5.9 -5.8 -8.5 -9.4 -11.8 -16.1 -2.4 -4.7 -5.9 -10.6 -7.8 -13 -1.9 -2.4 -3.5 -5.2 -3.5 -6.1 0 -3.1 -8.1 -24.3 -11.1 -28.9 -1.6 -2.6 -6.5 -7.9 -10.9 -11.8 -6 -5.5 -9.4 -7.7 -13.9 -9.2 -9 -3.1 -12 -5.5 -19.1 -16 -3.6 -5.3 -7.5 -10.8 -8.7 -12.4 -2.9 -3.6 -4.6 -9.6 -3.8 -13.8 0.4 -1.9 0 -5.7 -0.9 -8.8 -2.8 -10.2 -3 -16.1 -0.7 -21.4 2.9 -6.5 2.6 -9.8 -1.1 -16.4 -3.5 -6 -6.6 -12.8 -10.3 -22.6 -1.2 -3.3 -2.8 -7.3 -3.4 -8.8 -1.6 -4.2 -12.1 -15.5 -15.3 -16.6 -1.6 -0.6 -4.3 -2.1 -6 -3.4 -1.8 -1.4 -5.5 -3.4 -8.3 -4.6 -6.3 -2.8 -7.8 -4.2 -11.1 -10.5 -1.4 -2.8 -3.2 -5.8 -4 -6.7 -1.7 -1.9 -1.8 -5.2 -0.2 -9.5 1.7 -4.9 -1.9 -12.2 -9.9 -20 -6 -6 -6.2 -6.3 -5.3 -9.5 0.9 -3.1 0.7 -3.6 -3 -7.1 -2.4 -2.3 -5.9 -7.7 -8.8 -13.6 -4.5 -9.1 -8.7 -16.1 -21.7 -35.7 -2.9 -4.4 -7.1 -11.6 -9.3 -16.1 -2.3 -4.4 -5.3 -9.5 -6.7 -11.2 -2.6 -3.1 -3 -3.2 -10.2 -3.2 -4.1 0 -8.3 -0.5 -9.4 -1 -2.5 -1.4 -2.5 -5.8 0 -13.6 1.8 -5.4 6.1 -24.6 7.6 -33.6 0.3 -2 1.4 -4.7 2.4 -5.9 2.3 -2.9 6.6 -2.8 23.3 0.5 21.4 4.3 20.2 4.3 24.8 0.3 2.2 -1.8 6.3 -6.4 9.1 -10.1 5.6 -7.4 6.5 -7.9 19.4 -10.7 9.2 -2.1 12.5 -3.9 12.5 -6.9 0 -2.8 3.7 -6.7 8.5 -9 2.5 -1.2 4.5 -2.7 4.5 -3.4 0 -1.6 -1.9 -4.2 -13.5 -18.5 -15.2 -18.7 -16.4 -20.5 -16.5 -22.3 0 -2.4 3.4 -4.4 10.5 -6.1 5.2 -1.3 28 -7.2 46.5 -12 3 -0.8 8.2 -2.9 11.5 -4.6 l6.1 -3.2 9.9 2 c18.9 3.8 29.5 6.1 31.8 7 1.3 0.5 10.4 6.3 20.3 12.9 9.8 6.5 22.2 14.4 27.5 17.4 17.4 10.1 14.2 7.6 47.6 37.3 16.3 14.5 37.3 32.2 43.1 36.3 4.3 3.1 22.6 5 60.7 6.2 27.3 0.9 37.5 1.8 41.3 3.9 1 0.5 2.6 2.9 3.6 5.3 4.1 9.9 2.9 9.2 15.3 10.4 6.4 0.6 11.9 1.6 12.8 2.4 2.1 1.7 3.7 4.9 6.5 13 1.3 3.6 3.7 8.1 5.5 10.1 1.8 2 3.5 5.3 3.9 7.5 1.1 5.7 2.2 7.1 6.3 8.4 5.1 1.7 7.1 3.6 8.3 8.2 0.7 2.5 2 4.3 3.9 5.2 3.1 1.7 8.9 7.8 11.5 12.2 1 1.7 3.2 4 5 5.2 6.5 4.5 8.8 7.8 10.6 15.4 2 8.6 1.7 10.4 -2.1 12.3 -3.2 1.7 -3.2 2.2 1.8 10.6 1.8 3.1 4.8 6.8 6.7 8.2 3.7 2.9 5.8 7.5 7.6 16.7 1.2 6.4 6.7 14.1 11.4 16.1 2.3 1 3.6 1 7.3 -0.4 7.8 -2.9 12 0.7 11 9.4 -0.6 4.5 -0.4 4.8 3.6 8.5 2.4 2.2 10.5 11.7 18 21.1 7.6 9.5 14.7 17.7 15.7 18.3 1.1 0.6 8.8 1.9 17.2 3 8.4 1 18.5 2.4 22.3 3 26.2 3.9 37.5 5.1 43 4.5 5.8 -0.6 6.1 -0.5 9.1 2.7 1.7 1.8 5.9 6.8 9.3 11.1 7.2 9.3 7.3 10 3.2 24.8 -1.6 5.7 -5.7 20.4 -9 32.6 -8.9 32.4 -8.9 32.4 -15.9 35.5 -6.2 2.8 -10.6 4.6 -19.6 7.8 -6.7 2.4 -26.7 10.1 -33.6 13 -2.5 1 -10.8 4.2 -18.5 7.1 -7.7 2.8 -15.5 5.7 -17.2 6.5 -3.1 1.3 -10.2 2.7 -30.8 5.9 -12.2 1.9 -36.6 5.3 -44 6 -14.7 1.5 -29.2 3.9 -32.5 5.4 -1.9 0.9 -8.4 4.3 -14.4 7.6 -9.4 5.2 -11.8 7.1 -17.4 13.5 -3.5 4.1 -9.7 12.5 -13.7 18.5 -9 13.4 -14.4 17.5 -23.4 17.5 -3.4 0 -4.4 -0.6 -8.6 -5.5 l-4.7 -5.5 -7.4 0 c-10.4 0 -36 -2.8 -41.5 -4.6 -5.5 -1.8 -35.5 -2.4 -46.1 -1 -6.4 0.8 -6.8 0.8 -11.7 -2.3 -2.8 -1.7 -5.8 -3.1 -6.5 -3.1 -1.7 0 -6.6 8.1 -6.6 10.9 0 1.1 0.7 3.8 1.6 6 1.3 3.2 1.4 4.7 0.5 7.4 -1.2 3.4 -8.4 11.7 -10.2 11.7 -0.6 0 -2.4 1.1 -4.1 2.5 -3.7 3.1 -7.8 3.2 -10.5 0.3z m12.6 -11.8 c0.9 0 2.5 -1.4 3.5 -3.1 1.7 -2.8 1.7 -3.3 0.2 -7 -1.7 -4.3 -1.4 -9.3 0.9 -13.9 0.7 -1.4 1.6 -5 2 -8 0.5 -3.8 1.7 -6.6 3.7 -9.2 1.9 -2.4 3.6 -6.4 4.7 -11.2 2 -8.4 3.8 -11 11.3 -16.8 11 -8.5 12.8 -10.8 12.8 -15.6 0 -3.6 0.6 -4.9 3.2 -7.5 1.8 -1.8 4 -4.6 5 -6.3 1.6 -3.1 1.6 -3.2 -0.9 -4.5 -3.2 -1.7 -15.9 -15.3 -17.9 -19.2 -1.2 -2.2 -1.4 -4.6 -0.9 -9.7 0.6 -6.3 0.5 -6.9 -2.4 -11.4 l-3 -4.8 -11 -0.3 c-12.8 -0.3 -16.1 0.8 -26.7 8.8 -6.6 5 -10.1 6.7 -14.2 6.7 -2.1 0.1 -3.3 1.1 -5.6 4.6 -3.6 5.7 -6.1 12.3 -7.6 19.6 -1.2 6.1 -2.7 7.4 -8.2 6.9 -2.2 -0.2 -3 0.3 -3.8 2.3 -0.5 1.4 -1.4 2.6 -2 2.6 -1.9 0 -2.3 5 -0.6 6.9 2.1 2.3 2.3 8.9 0.5 11.9 -1.2 1.9 -0.8 3.2 3.5 11.8 4.6 9.4 10.1 16 19.5 23.2 3.6 2.7 7.5 9.5 10.1 17.5 1.1 3.4 3.6 7.8 5.7 10.3 6.5 7.3 8.4 10.3 9.4 14.2 1.7 6.4 1.6 6.3 4.5 3.7 1.5 -1.4 3.4 -2.5 4.3 -2.5z m148.4 -14.6 c3.3 -1.6 3.5 -2 4.1 -8.3 0.7 -6.8 4.4 -38 7.5 -62.8 l1.7 -14.3 -5.2 0 c-2.8 0 -13.9 0.7 -24.5 1.5 -10.7 0.8 -22.3 1.7 -25.9 2 -3.6 0.2 -14.8 0.8 -25 1.1 -17.7 0.7 -18.8 0.6 -23.5 -1.5 l-5 -2.2 -1.5 2.2 c-0.8 1.2 -3 3.6 -4.7 5.4 -2.7 2.6 -3.3 3.9 -3.3 7.5 0 4.7 -1.1 6 -15.2 18.2 -6.8 5.9 -8.9 9.7 -10.3 18 -0.3 2.1 -2.1 5.8 -4 8.3 -3.6 4.7 -4.5 6.6 -2.2 4.6 2 -1.6 9.7 0.1 13.8 3 2.9 2.1 4.3 2.3 9.4 2 3.3 -0.3 14.3 -0.5 24.5 -0.4 15.3 0 19.2 0.3 22.5 1.7 4.8 2.1 26.2 4.6 39.8 4.6 11.3 0 13.7 0.9 18.5 6.9 3.7 4.7 3.9 4.7 8.5 2.5z m24.2 -28.9 c3.9 -4.9 7.8 -9.5 8.6 -10.1 0.8 -0.7 8.4 -5 16.9 -9.6 15.2 -8.4 15.7 -8.5 25.5 -9.7 45.8 -5.2 84 -10.8 92.5 -13.5 5.3 -1.7 28.4 -10.6 53 -20.4 25.3 -10.1 35.8 -14.2 36.9 -14.2 0.5 0 1.3 -0.6 1.9 -1.2 0.8 -1.1 18.3 -62.8 19.9 -70.5 0.4 -1.6 -1.4 -4.7 -6.3 -11.1 -6 -7.9 -7.1 -8.9 -8.8 -8 -2.2 1.2 -10 0.6 -29.6 -2.2 -7.4 -1.1 -23.4 -3.3 -35.5 -5 -16.1 -2.2 -22.4 -3.5 -23.8 -4.8 -1.1 -0.9 -8.8 -10.3 -17.2 -20.8 -8.4 -10.5 -17.1 -20.6 -19.3 -22.4 -4.6 -3.6 -5.6 -6.2 -4.2 -10.9 0.8 -2.9 0.7 -3.2 -0.8 -2.5 -3.3 1.4 -9.3 1.6 -12.3 0.4 -6.8 -2.9 -15.2 -15.9 -16.4 -25.7 -0.6 -4.4 -1.2 -5.7 -3.8 -7.5 -4.1 -2.9 -6.1 -5.3 -8.7 -10.3 -1.1 -2.2 -2.9 -5.6 -4 -7.5 -3 -5.2 -2.7 -10.3 0.9 -13.2 2.8 -2.1 2.9 -2.6 2.1 -6.7 -0.8 -4.4 -3.4 -7.4 -9.3 -10.7 -1.6 -0.9 -3.7 -3.4 -4.8 -5.8 -2.2 -5.2 -4.1 -6.9 -9.9 -9.4 -5.6 -2.4 -7.3 -4.4 -7.3 -8.5 0 -3.5 -1.1 -4.7 -4.3 -4.7 -3.7 0 -9.4 -8.1 -9.4 -13.4 0 -1.2 -1.5 -3.7 -3.4 -5.5 -1.9 -1.8 -3.7 -4.5 -4 -5.9 -0.4 -1.5 -1.7 -5.4 -2.9 -8.7 l-2.3 -6 -4.9 -0.7 c-2.8 -0.3 -7.8 -0.7 -11.2 -0.7 -9.8 -0.2 -10.8 -0.8 -13.3 -9.5 -1.3 -4.2 -2.3 -7.6 -2.4 -7.7 -0.5 -0.2 -31 -2.8 -34.1 -2.9 -3.4 0 -5.3 1 -12.7 6.5 -4.7 3.6 -10.3 8.2 -12.3 10.3 -4 4.2 -26.7 43.1 -25.9 44.4 0.3 0.4 1.6 0.8 3 0.8 1.3 0 3.1 0.8 3.9 1.8 0.8 0.9 3.1 3.6 5 5.8 2.2 2.6 6 5.3 10.3 7.4 3.7 1.7 7.6 4 8.7 5 1.1 0.9 3.8 2.3 6 3 2.2 0.7 4.8 1.9 5.7 2.7 0.9 0.8 3.9 1.6 6.7 1.7 3.6 0.2 5.8 0.9 7.4 2.4 2.7 2.6 8.8 5.2 12 5.2 1.3 0 5.3 2.1 8.9 4.8 3.5 2.6 7.5 5.4 8.8 6.3 2.2 1.5 2.3 2.1 3.1 19.5 0.4 9.8 0.8 21.4 0.8 25.7 0.1 8.5 -0.5 7.6 9.1 14.7 8 5.9 15.1 13 16.6 16.7 0.8 1.8 1.4 5.3 1.4 7.8 0 10.3 -6.7 71.5 -13.9 127 -1.6 12.7 -4.8 38.3 -7.1 57 -2.2 18.7 -4.5 37.6 -5 41.9 -1.6 12.5 -1.5 12.7 3.6 5.1 2.6 -3.8 7.9 -11 11.9 -16z m-231.7 -39.4 c0.2 -1.2 -0.4 -3.4 -1.3 -4.8 -1.2 -1.8 -1.6 -3.9 -1.2 -6.9 0.3 -3.1 0.1 -4.4 -0.8 -4.4 -2.9 0 -4.6 -3.6 -4 -8.6 0.6 -4.6 0.5 -5.1 -2.4 -7.8 -2.5 -2.4 -3.1 -3.8 -3.1 -7 0 -2.3 0.7 -5 1.5 -6 0.8 -1.1 1.5 -2.9 1.5 -3.9 0 -1.1 1.6 -3.7 3.5 -5.8 2.2 -2.5 3.5 -4.9 3.5 -6.7 0 -3.5 2.6 -7.2 5 -7.2 1 0 3.1 1.1 4.7 2.4 5.5 4.5 10.6 5.9 13 3.5 1.8 -1.8 5 -0.1 6.4 3.4 1.8 4.5 3.8 6.7 5.7 6 1 -0.4 5.1 -3 9.2 -5.8 13.8 -9.6 17.7 -11 26.7 -9.3 3.5 0.6 6.5 0.9 6.7 0.7 0.3 -0.2 -1.1 -3.6 -3 -7.4 -4.6 -9.4 -5.4 -16.9 -2.5 -25 1.4 -4.1 2.1 -8.4 2.1 -13.7 0 -7.5 -0.1 -7.9 -2.6 -8.8 -1.4 -0.6 -4.5 -1 -6.9 -1 -5.1 0 -6.8 -1.8 -7.9 -8.2 -0.8 -4.2 -2.1 -5.2 -8.6 -6.3 -2.4 -0.4 -6.3 -1.6 -8.6 -2.6 -4.2 -1.8 -4.3 -1.9 -7.5 -12.1 -2.6 -8.5 -6.9 -18.9 -8.5 -20.7 -0.2 -0.2 -1.4 0.1 -2.7 0.7 -1.2 0.6 -3.4 1.6 -4.9 2.2 -2.3 0.8 -2.8 1.6 -2.8 4.1 0 4.8 -3.5 10 -9.7 14.4 -3.8 2.8 -6.1 5.3 -7.4 8.2 -1.1 2.7 -2.9 4.8 -5.1 5.9 -1.8 0.9 -6.2 3.7 -9.7 6 -5.7 3.9 -6.9 4.4 -12.1 4.4 -6.8 0 -7 -0.2 -12.5 -11.3 l-4 -8.2 -6.5 0 c-5.8 0 -7 -0.4 -11.2 -3.4 -3.7 -2.7 -5.8 -3.4 -9.8 -3.5 -2.7 -0.1 -5 -0.1 -5 0 0 1 4 9.3 7 14.4 4.8 8.1 6 15.4 3.5 22 -2.8 7.5 -2.8 8.8 -0.7 15.3 1.4 4.2 2 8.4 1.9 12.8 -0.2 6.3 -0.1 6.7 3.9 11.5 2.3 2.7 5.8 7.6 7.9 10.9 5.8 9.2 8.1 11.3 13.4 12.1 5.9 0.8 7 1.5 17 11.5 9 9 16.8 19.6 17.6 23.8 0.3 1.4 1.1 4 1.7 5.6 0.6 1.7 2 5.7 3.2 9 1.1 3.3 2.5 6.6 2.9 7.3 1.2 1.9 3.1 0.9 3.5 -1.7z m148.7 -16 c6.1 -0.5 15.5 -1.2 21 -1.6 5.5 -0.3 18.9 -1.3 29.9 -2.1 10.9 -0.7 20.2 -1.4 20.7 -1.4 1 0 1.1 -0.9 4.4 -27 1.4 -11.3 3.7 -28.8 5 -39 4.7 -37.1 8.5 -75.9 8.5 -87.9 l0 -7.4 -7.5 -7.3 c-4.2 -4.1 -9.6 -8.6 -12.1 -10 -2.4 -1.4 -4.9 -3.4 -5.4 -4.4 -0.5 -1 -1.4 -13 -2 -26.6 -0.6 -13.7 -1.4 -25.2 -1.8 -25.5 -0.4 -0.4 -3.8 -3.1 -7.7 -6 -5.1 -3.8 -8.4 -5.5 -12 -6.2 -2.7 -0.5 -6.8 -2.2 -8.9 -3.8 -2.9 -2.1 -5.1 -2.9 -8.1 -2.9 -2.2 0 -5 -0.7 -6.2 -1.5 -1.2 -0.9 -4 -2.2 -6.2 -3 -2.2 -0.7 -6.3 -3 -9.1 -4.9 -2.9 -2 -5.7 -3.6 -6.4 -3.6 -2.5 0 -11.8 -7.3 -13.3 -10.4 -1.3 -2.8 -2.3 -3.5 -5.6 -4 -2.2 -0.4 -4.1 -0.5 -4.2 -0.4 -0.1 0.2 -1.4 2 -2.9 4 -2.5 3.4 -2.7 4 -1.5 7.1 1.8 5 0.4 8.5 -5.8 14.4 -5.3 5.1 -5.5 5.6 -5 9.4 0.3 2.2 2.3 6.7 4.6 10.2 5.1 7.9 6.1 10.7 6.1 16.7 0 4.5 -0.3 5.1 -3 6.5 -1.6 0.8 -4.4 1.5 -6.3 1.5 -6.9 0 -13.7 2 -20.1 5.9 -3.6 2.3 -9.4 5 -12.9 6.2 -3.4 1.1 -6.7 2.5 -7.4 3 -0.6 0.6 -1.4 3.2 -1.8 6 -0.4 2.7 -1.5 5.9 -2.5 7.1 -1.6 2 -2.7 2.2 -11.1 2.2 -5.2 0 -12.2 -0.4 -15.6 -0.8 -5.7 -0.8 -6.3 -0.7 -8.5 1.5 -2.9 2.9 -6.3 17 -5.2 21.5 0.3 1.6 2.2 6.1 4 10.1 1.9 4 4.5 11.1 5.9 15.8 1.4 4.8 2.7 9 2.9 9.4 0.3 0.4 4.2 1.6 8.8 2.6 9.6 2.2 12.2 4.2 13.1 10.2 0.7 4.3 2.1 5.2 8.2 5.3 5.8 0.1 7.4 1 8.6 5.2 1.2 4.7 0.5 14.6 -1.8 23.5 -1.3 5.1 -1.4 7.3 -0.5 11.8 1.8 9 4.5 14.1 9.1 16.9 6.5 4.1 12.8 18.8 9.1 21.1 -6.6 4.1 16 28.1 30.8 32.5 3.7 1.1 14.6 1.2 27.7 0.1z m-140.8 -6.9 c4 0.3 4 0.3 6.3 -10.5 0.8 -3.8 2.7 -8.1 5.6 -12.5 4.1 -6 4.4 -6.9 3.6 -10.2 -0.6 -2.4 -1.3 -3.3 -2.3 -3 -4.4 1.4 -9.9 0.4 -13.8 -2.8 -4.8 -3.9 -6.1 -4 -6.1 -0.7 0 3.3 -2.1 7.3 -5.4 10.4 -1.5 1.4 -2.6 3.6 -2.6 5 0 1.4 -0.7 3.5 -1.5 4.5 -2.1 2.8 -1.9 4.1 1.5 7.6 3.2 3.2 3.4 4.1 3 10.3 -0.1 2.8 0.3 4.2 1.6 5.2 1.6 1.1 2.2 1 4.1 -1.2 1.8 -1.9 3.1 -2.4 6 -2.1z m-32.6 -111.9 c2.4 -1.6 6.3 -4.2 8.6 -5.6 2.5 -1.6 5.1 -4.4 6.3 -6.7 1.1 -2.1 3.2 -4.7 4.6 -5.7 1.4 -1 4.6 -3.5 7 -5.7 3.6 -3.1 4.4 -4.5 4.4 -7.3 0 -5 1.2 -6.6 6.9 -9.3 5.3 -2.4 6.7 -4.5 5.7 -8.4 -0.3 -1.3 0.3 -5.7 1.4 -9.7 2.8 -10.5 2.6 -11.4 -2.6 -17.2 -5.3 -5.9 -6.4 -8.3 -6.4 -13.7 0 -4.3 -3.1 -7.6 -7.9 -8.6 -1.4 -0.3 -5.1 -1.2 -8.2 -2 -7.7 -2 -11.2 -1.8 -16.7 1 -4.6 2.3 -10.4 3.2 -18.4 2.8 -6 -0.3 -6.6 -2.3 -7.4 -21.2 -0.5 -11.2 -1.1 -17.4 -2.1 -19.3 -1.4 -2.8 -1.7 -2.8 -6.8 -2.2 -3.4 0.4 -7.7 0 -12 -1 -3.6 -0.8 -8.6 -1.5 -11 -1.5 -3.7 0 -4.8 -0.6 -8.8 -4.5 -4.3 -4.2 -4.8 -4.4 -8.6 -3.9 -4 0.6 -4.2 0.5 -12.7 -8.1 -8 -8 -9.1 -8.7 -14 -9.5 -2.9 -0.5 -6.6 -1.6 -8.3 -2.4 -3.9 -2.1 -5.3 -2 -9.5 0.5 -3.9 2.3 -4.5 4.3 -2.1 6.9 0.9 1 1.8 3.5 2.2 5.6 0.3 2.4 1.7 5.2 3.6 7.1 2.2 2.4 3.1 4.5 3.6 8.5 0.5 4.1 1.8 7.1 5.6 12.9 2.8 4.2 6.2 8.3 7.7 9.2 4.9 2.8 6 5.8 6.9 19 0.8 11 0.7 12.8 -1.2 18.4 -2.2 6.8 -2.8 7.2 -10.2 7.2 -2.7 -0.1 -5.1 0.1 -5.3 0.4 -0.3 0.2 0.3 2.1 1.2 4 1.3 2.7 3 4.1 6.8 5.8 8.1 3.4 20.9 12.3 26.1 18.1 3 3.3 6.2 8.4 8.5 13.8 l3.7 8.5 7.1 0.6 c5.3 0.4 7.8 1.1 9.4 2.6 4 3.6 6.8 4.6 11.7 3.9 6.3 -0.8 8.6 1 12.9 10.3 1.9 4.2 3.9 8.2 4.5 9 1.8 2.1 8.9 0.8 13.8 -2.6z m59.4 -72.6 c2.8 0.1 8.7 0.4 13.2 0.8 12.2 1.1 12.8 0.8 14.3 -7 1.4 -7.4 2.5 -8.6 10 -10.5 2.5 -0.7 8.3 -3.4 13 -6 7.7 -4.4 9.4 -5 17.9 -5.9 5.2 -0.6 9.9 -1.5 10.4 -2 1.7 -1.7 -1.3 -10.9 -6.1 -18.7 -3.7 -6.1 -4.6 -8.4 -4.6 -12.5 -0.1 -4.8 0.1 -5.2 5.7 -10.3 5.9 -5.5 7 -8.4 4.4 -12 -1.2 -1.7 -1.5 -1.7 -5 0.4 -3.1 1.9 -4.1 2 -7 1 -1.9 -0.6 -5.4 -2.9 -7.7 -5 -2.8 -2.6 -5.3 -4 -7 -4 -4.6 0 -13.9 4.8 -19.3 9.9 -2.9 2.6 -7.7 6.4 -10.8 8.3 -3.1 2 -7.7 6 -10.3 9 -2.6 3 -7 7.2 -9.9 9.4 -6.8 5.1 -7.4 6 -8.4 11.9 -0.8 4.6 -1.3 5.3 -6.9 9.5 -3.4 2.5 -7 5 -7.9 5.5 -1.6 1 -1.6 1.3 0.4 5 1.1 2.2 2.1 5.6 2.1 7.6 0 3 1.1 5.1 5.3 10.4 4.2 5.4 5.6 6.5 7.2 5.9 1.1 -0.4 4.3 -0.7 7 -0.7z m-154.3 -6.9 c1.1 -2.4 3.2 -10.3 2.9 -11.3 -0.2 -0.5 -0.5 -4.4 -0.7 -8.5 -0.6 -12.5 -1.1 -13.8 -5.3 -16.5 -2.2 -1.3 -5.3 -4.7 -7.1 -7.7 -1.7 -2.9 -4.2 -6.8 -5.6 -8.7 -1.7 -2.4 -2.4 -4.7 -2.4 -8 0 -3.9 -0.4 -5 -3 -7.1 -2.1 -1.7 -3.2 -3.7 -3.7 -6.5 -0.3 -2.2 -1.4 -5.1 -2.5 -6.4 -1.8 -2.4 -2.3 -5.6 -1.2 -8.5 0.3 -0.8 3 -2.8 5.9 -4.2 l5.3 -2.7 5.9 2.1 c3.2 1.1 7.8 2.4 10.3 2.8 3.9 0.6 5.6 1.7 12.9 9 8.1 8.1 8.6 8.4 13 8.4 4 0 5 0.5 8.8 4.2 4.7 4.6 5.6 4.8 25.8 6.4 l8 0.6 2.3 -5.5 c1.3 -3 3.9 -7.3 5.9 -9.6 l3.6 -4.2 -4.1 -4.2 c-2.7 -2.8 -5 -6.6 -6.7 -11.2 -1.4 -3.8 -3.2 -7.8 -3.9 -8.8 -1.6 -2.1 -20.8 -11.7 -23.4 -11.7 -1.1 0 -3.5 -0.6 -5.3 -1.4 -1.9 -0.8 -5.6 -1.7 -8.4 -2 -14.8 -1.8 -14.5 -1.7 -18.4 -5.5 -3 -2.8 -4 -4.6 -4.5 -8.4 l-0.7 -4.8 -4.9 4.1 -4.9 4.1 -6.5 -2 c-3.6 -1.1 -11.4 -2.9 -17.3 -4.1 -9.8 -1.8 -11.1 -2.3 -13.5 -5.3 -1.5 -1.7 -3.2 -5 -3.8 -7.2 -0.6 -2.2 -1.6 -5.6 -2.3 -7.5 l-1.3 -3.5 -18.9 -3.7 c-10.3 -2.1 -19 -3.6 -19.2 -3.4 -0.2 0.1 -1.5 5.9 -2.9 12.7 -1.4 6.8 -3.4 15.5 -4.5 19.4 -1 3.8 -1.9 7.1 -1.9 7.2 0 0.2 2.6 0.3 5.9 0.3 4.4 0 6.6 0.5 9.1 2.3 3.2 2.2 9.5 11.9 14.7 22.7 1.5 3 4.8 8.7 7.4 12.5 10.4 15.5 18.3 28.3 21.5 34.9 1.9 3.9 5.2 8.8 7.4 10.9 3.4 3.2 4 4.4 4 7.9 0 3.4 0.6 4.6 3.8 7.7 2 2 5.6 7.4 8 12.1 4.1 8 4.3 8.8 3.7 14.2 l-0.7 5.7 6.4 -0.4 c3.9 -0.2 6.6 -0.9 7 -1.7z m96 -22.8 c4.4 -3.2 9.9 -3.5 19.1 -1.1 7.8 2 7.8 2 12.7 0.1 2.7 -1.1 7.1 -3.4 9.6 -5.2 4.2 -3 4.9 -4 6.5 -9.8 1.3 -4.8 2.5 -7 4.6 -8.5 1.5 -1.1 7.5 -6.5 13.3 -12.1 5.8 -5.6 12 -10.9 13.9 -11.9 1.9 -1 5.8 -3.9 8.5 -6.5 2.9 -2.6 8.3 -6.1 12.3 -8 9.4 -4.2 12.6 -3.8 19.4 2.5 2.6 2.5 5.6 4.5 6.7 4.5 1 0 3.3 -1.1 5.2 -2.5 1.9 -1.4 3.9 -2.5 4.6 -2.5 2.2 0 5.5 -6.6 4.8 -9.5 -0.7 -2.7 -2.5 -3.8 -7.6 -4.9 -1.5 -0.4 -4.9 -2.6 -7.6 -4.9 -3.6 -3.2 -6.7 -4.9 -12.6 -6.6 -8.3 -2.5 -9.2 -3.3 -15.8 -14.5 -2.7 -4.4 -2.9 -4.6 -7.5 -4.6 -6.9 0 -11.2 -1.5 -15.2 -5.4 -3.3 -3 -4.3 -3.4 -11.1 -3.9 -5.3 -0.4 -9.7 -1.5 -15 -3.9 -7.2 -3.1 -7.9 -3.2 -18.5 -2.9 -15.1 0.4 -19.3 0.4 -24.5 0 -4.9 -0.4 -10.8 1.8 -31.5 11.9 -18.1 8.8 -26.6 14.2 -22.5 14.2 0.6 0 4.7 1.7 9.2 3.7 6.8 3.1 8.6 4.4 11 8.3 1.6 2.5 3.6 6.9 4.4 9.8 1.2 3.9 2.5 6 5.4 8.3 5.5 4.5 5.6 7 0.5 13 -2.4 2.8 -4.8 7 -5.5 9.3 -1 3.8 -0.9 4.8 0.6 7.7 1.4 2.7 1.9 7.1 2.5 20.1 0.4 9.1 1 17.2 1.4 17.8 1.4 2.2 15.1 0.7 18.7 -2z m154.9 -90 c13.7 -24.4 15 -26.1 23.8 -33.1 5 -4 7.6 -6.6 6.8 -7 -0.7 -0.4 -11.8 -1.4 -24.7 -2.4 -12.8 -0.9 -24.3 -2.1 -25.5 -2.5 -2.5 -1 -8.7 -5.8 -23.6 -18.5 -6.3 -5.4 -13.8 -11.9 -16.8 -14.4 -8.7 -7.4 -13.8 -11.9 -26.9 -23.8 -9.9 -9 -14.7 -12.5 -24.3 -17.8 -6.6 -3.6 -16.1 -9.4 -21.2 -12.9 -5.1 -3.5 -13.5 -9.2 -18.8 -12.8 l-9.7 -6.4 -18.5 -3.8 -18.5 -3.9 -4.4 2.5 c-2.5 1.5 -13.5 4.9 -26.8 8.3 -29.7 7.6 -33 8.5 -33 9.3 0 0.4 6.1 8.4 13.5 17.7 13.5 16.8 13.6 17 17.3 16.8 2 -0.2 16.1 -1.4 31.2 -2.8 l27.4 -2.5 6 3.7 c5.6 3.4 6.7 3.7 17.4 4.5 l11.4 0.8 6 5.4 c3.3 3 8.4 6.7 11.4 8.3 5.4 2.8 7.3 5.5 6.1 8.7 -0.3 0.8 -7.5 6.6 -16 12.9 -8.5 6.3 -15.7 11.9 -16.1 12.5 -0.9 1.5 -2.7 16.4 -2 17.1 0.3 0.3 9 0.6 19.3 0.6 l18.8 0 6.3 3.3 c5.4 2.7 7.3 3.2 13.4 3.2 7.7 0 10.1 1 14.4 6.2 2.2 2.6 3 2.8 9.2 2.8 8.2 0 9.5 0.9 15.4 10.5 4.4 7.3 5 7.7 15.3 10.4 2.3 0.6 6.5 3.1 9.4 5.6 3.5 2.9 6.7 4.7 9.8 5.4 2.5 0.5 5.3 1.8 6.1 2.9 0.8 1.1 1.6 1.9 1.6 1.8 0.1 0 4.4 -7.5 9.5 -16.6z m-201.9 -13.1 c8.3 -5.3 40.9 -20.9 47.1 -22.4 2.3 -0.6 2.6 -1.3 3.2 -8.3 0.4 -4.3 1.2 -8.9 1.8 -10.4 0.8 -1.8 6.9 -6.9 16.6 -14 8.4 -6.2 15.4 -11.7 15.4 -12.3 0 -0.5 -2.3 -2.3 -5.1 -4 -2.8 -1.6 -7.7 -5.3 -10.9 -8.1 l-5.8 -5.1 -11 -0.7 c-10.8 -0.8 -12.5 -1.3 -20.7 -6.4 -2.5 -1.5 -3.9 -1.5 -21.5 0.1 -44.1 4.2 -41.3 3.8 -41.3 5.8 0 2.2 -5 6.4 -10.6 9.1 -3.6 1.6 -4.6 2.7 -5.4 5.7 -1.5 5.6 -3.9 7.1 -15.2 9.6 -5.7 1.3 -11 2.6 -11.8 2.9 -0.8 0.4 -4.2 4 -7.4 8.1 -3.3 4.1 -6.2 7.5 -6.5 7.5 -0.3 0 -2 1.3 -3.7 2.9 l-3.2 3 1.9 6.8 c1 3.7 2.4 7.9 3.1 9.1 1.4 2.8 5.7 5.2 9.1 5.2 1.3 0 7.7 1.4 14.2 3 l11.9 3 2.5 -2.2 c1.4 -1.3 3.4 -3.1 4.4 -4.1 2.7 -2.6 6 -1.8 7.1 1.8 3.8 12.8 3.3 12.4 19.5 15.5 5.7 1.1 10.6 2.2 10.9 2.5 1.5 1.4 5.8 0.1 11.4 -3.6z"/>
  <path d="M299 612.1 c-4.5 -2.7 -9 -8.1 -9 -10.7 0 -2.1 3.7 -5.4 6 -5.4 2.9 0 14 11.3 14 14.2 0 5.4 -4.1 6.1 -11 1.9z"/>
 </g>
</svg>